:version 1.10
:name ASF
:units
  mass 1
  length 1
  angle deg
:documentation
  ASF file generated by Kaydara
:root
  axis xyz
  order  tx ty tz rx ry rz
  position 0 0 0
  orientation 0 0 0
:bonedata
  begin
    id 1
    name RightUpLegDummy
    direction -0.718183 -0.695806 0.00816078
    length 4.904
    axis 0 0 0 xyz
  end
  begin
    id 2
    name RightUpLeg
    direction -0.0736652 -0.994202 0.0783343
    length 17.4976
    axis -2.72909 -3.00389 -4.00133 xyz
    dof rx ry rz
  end
  begin
    id 3
    name RightLeg
    direction -0.0389037 -0.994596 -0.0962598
    length 16.5821
    axis 3.95836 -18.5909 -4.46993 xyz
    dof rx ry rz
  end
  begin
    id 4
    name RightFoot
    direction -0.311643 -0.412678 0.855906
    length 3.77069
    axis -1.99483 -18.8351 -3.27644 xyz
    dof rx ry rz
  end
  begin
    id 5
    name RightToes
    direction -0.317852 0.0389852 0.947339
    length 3.85082
    axis -2.00228 -18.1713 -3.25211 xyz
    dof rx ry rz
  end
  begin
    id 6
    name SpineDummy
    direction 8.3039e-015 1 4.44677e-016
    length 4.6813
    axis 0 0 0 xyz
  end
  begin
    id 7
    name Spine
    direction -0.000262373 0.999988 0.00493267
    length 10.1015
    axis -0.00246081 0.00062579 0.0150362 xyz
    dof rx ry rz
  end
  begin
    id 8
    name Spine1
    direction 0 0 0
    length 0
    axis -0.00349562 0.000650293 0.0196666 xyz
    dof rx ry rz
  end
  begin
    id 9
    name HEadDummy
    direction -0.000343232 0.999999 0.00123745
    length 3.43865
    axis -0.00349562 0.000650293 0.0196666 xyz
  end
  begin
    id 10
    name HEad
    direction -0.0461221 0.980933 0.188796
    length 5.12695
    axis -0.00351404 -7.04812 0.0199272 xyz
    dof rx ry rz
  end
  begin
    id 11
    name LeftShoulder1Dummy
    direction 0.998904 -0.0399089 -0.0244534
    length 3.5433
    axis -0.00349562 0.000650293 0.0196666 xyz
  end
  begin
    id 12
    name LeftShoulder1
    direction 0.99951 1.64443e-005 0.0312999
    length 4.05031
    axis -0.00349562 0.000650293 0.0196666 xyz
    dof rx ry rz
  end
  begin
    id 13
    name LeftArm
    direction 0.984791 0.0515299 0.165927
    length 12.9126
    axis -64.823 -10.7743 5.20463 xyz
    dof rx ry rz
  end
  begin
    id 14
    name LeftForeArm
    direction 0.984968 0.0534808 0.16425
    length 10.8596
    axis -30.0462 -7.70601 1.87451 xyz
    dof rx ry rz
  end
  begin
    id 15
    name LeftHand
    direction 0.975871 0.0289682 0.216418
    length 6.62295
    axis -20.1348 -6.98077 1.86072 xyz
    dof rx ry rz
  end
  begin
    id 16
    name RightShoulderDummy
    direction -0.998877 -0.0405946 -0.0244307
    length 3.5433
    axis -0.00349562 0.000650293 0.0196666 xyz
  end
  begin
    id 17
    name RightShoulder
    direction -0.998933 -0.0249743 -0.0388558
    length 4.05031
    axis -0.0205316 -4.02113 1.41395 xyz
    dof rx ry rz
  end
  begin
    id 18
    name RightArm
    direction -0.997559 0.068664 0.0127103
    length 12.9638
    axis -67.3882 1.84188 -6.15987 xyz
    dof rx ry rz
  end
  begin
    id 19
    name RightForeArm
    direction -0.991508 0.0912848 0.0926241
    length 10.8312
    axis -22.1975 3.41087 -4.28711 xyz
    dof rx ry rz
  end
  begin
    id 20
    name RightHand
    direction -0.989262 0.0600788 0.133232
    length 6.57864
    axis -12.2911 2.17515 -4.39675 xyz
    dof rx ry rz
  end
  begin
    id 21
    name LeftUpLegDummy
    direction 0.718183 -0.695806 0.00816078
    length 4.904
    axis 0 0 0 xyz
  end
  begin
    id 22
    name LeftUpLeg
    direction 0.0831398 -0.99469 0.0606531
    length 17.4976
    axis -1.71016 2.29552 4.63832 xyz
    dof rx ry rz
  end
  begin
    id 23
    name LeftLeg
    direction 0.0498442 -0.991778 -0.117862
    length 16.5821
    axis 5.13757 15.5727 5.13348 xyz
    dof rx ry rz
  end
  begin
    id 24
    name LeftFoot
    direction 0.269026 -0.433896 0.85986
    length 3.77069
    axis -0.576502 15.6961 4.10267 xyz
    dof rx ry rz
  end
  begin
    id 25
    name LeftToes
    direction 0.277311 0.0251143 0.960452
    length 3.85048
    axis -0.576502 15.6961 4.10267 xyz
    dof rx ry rz
  end
:hierarchy
  begin
    root RightUpLegDummy SpineDummy LeftUpLegDummy
    RightUpLegDummy RightUpLeg
    RightUpLeg RightLeg
    RightLeg RightFoot
    RightFoot RightToes
    SpineDummy Spine
    Spine Spine1
    Spine1 HEadDummy LeftShoulder1Dummy RightShoulderDummy
    HEadDummy HEad
    LeftShoulder1Dummy LeftShoulder1
    LeftShoulder1 LeftArm
    LeftArm LeftForeArm
    LeftForeArm LeftHand
    RightShoulderDummy RightShoulder
    RightShoulder RightArm
    RightArm RightForeArm
    RightForeArm RightHand
    LeftUpLegDummy LeftUpLeg
    LeftUpLeg LeftLeg
    LeftLeg LeftFoot
    LeftFoot LeftToes
  end

:SAMPLES-PER-SECOND 30
:FULLY-SPECIFIED
:DEGREES
46
root  -1.48863 38.0616 71.5565 178.728 9.72005 178.633
RightUpLeg  10.3618 -8.23518 -5.81973
RightLeg  26.0565 10.0345 -4.1339
RightFoot  -21.4948 1.01132 13.2106
RightToes  -5.82073e-011 -3.18055e-015 -2.98177e-016
Spine  1.92271 3.82265 10.9271
Spine1  11.3591 7.08192 -9.69485
HEad  -8.80365 -0.721544 -0.475599
LeftShoulder1  -3.88251e-019 9.70628e-020 -3.87848e-018
LeftArm  -28.5628 69.4577 -70.6526
LeftForeArm  11.9067 -4.764 -2.70851
LeftHand  -0.317955 -0.570068 6.7403
RightShoulder  7.8554 10.6622 36.8763
RightArm  23.5671 -34.6003 29.8931
RightForeArm  -2.65448 32.3661 -17.4512
RightHand  -1.28567 3.24837 -17.0351
LeftUpLeg  -26.7337 -3.35951 -6.41028
LeftLeg  26.911 6.32933 11.9206
LeftFoot  -0.735806 -0.245789 2.25008
LeftToes  -3.44176e-011 4.05998e-011 -5.21293e-012
47
root  -1.74749 38.1926 70.3698 178.356 9.50381 178.057
RightUpLeg  8.34269 -7.83195 -7.38189
RightLeg  32.4929 9.26219 -5.59139
RightFoot  -15.2748 0.346721 16.5367
RightToes  -5.82073e-011 -3.18055e-015 -2.98177e-016
Spine  2.45085 3.74086 10.6248
Spine1  10.6342 7.26675 -10.715
HEad  -8.08633 -1.13287 -0.203264
LeftShoulder1  -3.88251e-019 9.70628e-020 -3.87848e-018
LeftArm  -29.0986 67.8108 -70.4947
LeftForeArm  10.5613 -3.66605 -2.44476
LeftHand  -0.273211 0.282792 6.7828
RightShoulder  7.83874 10.6678 36.7805
RightArm  23.6726 -36.5246 28.3477
RightForeArm  -1.0201 30.5645 -16.4496
RightHand  -1.27207 3.4374 -16.5011
LeftUpLeg  -24.7173 -4.13369 -7.82793
LeftLeg  27.5557 6.85377 12.4926
LeftFoot  -3.44202 -0.226012 2.57065
LeftToes  -3.44176e-011 4.05998e-011 -5.21293e-012
48
root  -1.97596 38.4125 69.2661 178.27 9.93202 177.53
RightUpLeg  3.70469 -6.73287 -8.11735
RightLeg  40.5492 7.30981 -9.05212
RightFoot  -4.87413 -1.03016 14.8337
RightToes  -5.82073e-011 -3.18055e-015 -2.98177e-016
Spine  3.28119 3.86809 9.72521
Spine1  9.19003 7.34795 -10.9858
HEad  -6.43457 -1.11213 -0.210602
LeftShoulder1  -3.88251e-019 9.70628e-020 -3.87848e-018
LeftArm  -29.5449 66.181 -70.8828
LeftForeArm  9.26495 -3.61601 -2.40078
LeftHand  -0.279919 0.368596 7.06947
RightShoulder  7.71794 10.6206 36.2846
RightArm  23.324 -38.5601 27.1379
RightForeArm  -0.265217 28.0651 -15.064
RightHand  -1.13722 3.04376 -15.4459
LeftUpLeg  -22.2948 -4.11315 -9.11283
LeftLeg  26.6993 7.56969 12.4698
LeftFoot  -4.53344 -0.250682 3.18328
LeftToes  -3.44176e-011 4.05998e-011 -5.21293e-012
49
root  -2.12775 38.5835 68.2977 178.335 10.5765 176.839
RightUpLeg  -2.34874 -5.46768 -8.28802
RightLeg  48.538 5.80887 -13.658
RightFoot  4.01644 -1.37762 8.82824
RightToes  -5.82073e-011 -3.18055e-015 -2.98177e-016
Spine  4.24779 3.95384 7.67174
Spine1  7.8144 7.07465 -10.442
HEad  -4.90891 -0.505431 -0.256051
LeftShoulder1  -3.88251e-019 9.70628e-020 -3.87848e-018
LeftArm  -29.1997 64.285 -71.1785
LeftForeArm  8.35404 -4.75167 -2.62684
LeftHand  -0.333449 -0.139926 7.6226
RightShoulder  7.62395 10.5841 35.8957
RightArm  22.2999 -39.9585 26.5012
RightForeArm  0.917181 25.1037 -13.5536
RightHand  -1.02139 2.30056 -15.1964
LeftUpLeg  -20.2194 -3.37176 -10.4232
LeftLeg  25.6437 7.84028 12.1097
LeftFoot  -5.58776 -0.230264 3.2677
LeftToes  -3.44176e-011 4.05998e-011 -5.21293e-012
50
root  -2.21288 38.7189 67.404 178.174 10.7998 176.361
RightUpLeg  -7.71107 -4.96319 -7.85189
RightLeg  54.8026 5.30005 -17.9992
RightFoot  6.31559 -0.63096 3.35116
RightToes  -5.82073e-011 -3.18055e-015 -2.98177e-016
Spine  5.0032 3.70413 5.44531
Spine1  7.51444 6.44193 -9.63981
HEad  -4.60754 0.381428 -0.246433
LeftShoulder1  -3.88251e-019 9.70628e-020 -3.87848e-018
LeftArm  -27.6961 61.5844 -70.7693
LeftForeArm  7.72814 -6.56667 -2.9732
LeftHand  -0.410973 -0.653418 8.56248
RightShoulder  7.64559 10.6033 35.961
RightArm  20.2515 -40.5831 26.0869
RightForeArm  2.80025 22.3411 -12.0682
RightHand  -1.04122 2.01039 -16.0558
LeftUpLeg  -18.1613 -3.03316 -11.3839
LeftLeg  24.8648 8.04439 11.8444
LeftFoot  -7.18376 -0.167184 2.86464
LeftToes  -3.44176e-011 4.05998e-011 -5.21293e-012
